<svg width="25" height="24" viewBox="0 0 25 24" fill="none" xmlns="http://www.w3.org/2000/svg">
<path d="M1.35645 17.5569V7.15755L11.9818 11.679V22.3044L1.35645 17.5569Z" fill="#222F3E" fill-opacity="0.2"/>
<path d="M8.70361 6.18534C9.83397 7.15745 12.6523 7.11223 12.6523 7.11223V5.1228L8.70361 4.55762V6.18534Z" fill="#222F3E" fill-opacity="0.2"/>
<path fill-rule="evenodd" clip-rule="evenodd" d="M24.5584 5.7284C24.3725 5.52512 24.1512 5.39441 23.975 5.32855L17.5884 2.94146V4.38955L22.4492 6.20634L12.5935 10.5401L2.51417 6.2065L7.33981 4.44292V6.2558C7.33981 7.47396 9.63404 8.46148 12.4641 8.46148C15.2942 8.46148 17.5884 7.47396 17.5884 6.2558V4.38955V2.94146V2.82475V2.41002C17.5884 1.079 15.2942 0 12.4641 0C9.63404 0 7.33981 1.079 7.33981 2.41002V2.99875L0.957846 5.33109C0.780879 5.39577 0.558463 5.52524 0.371573 5.7281C0.175138 5.94132 0 6.25811 0 6.6678V17.6493C0 18.0936 0.260298 18.4967 0.665259 18.6795L12.3175 23.9399C12.4967 24.0209 12.7023 24.02 12.8808 23.9375L24.2717 18.6783C24.6719 18.4935 24.9282 18.0929 24.9282 17.652V6.6678C24.9282 6.25852 24.7534 5.94175 24.5584 5.7284ZM23.5718 17.5074V7.19449L13.2748 11.7223V22.2616L23.5718 17.5074ZM11.9183 11.7263L1.35643 7.18522V17.5033L11.9183 22.2715V11.7263ZM16.2182 6.16364C16.2233 6.15845 16.2279 6.15365 16.232 6.14924V4.5291C15.2957 4.98599 13.9541 5.27218 12.4641 5.27218C10.9741 5.27218 9.63257 4.98599 8.69624 4.5291V6.14925C8.70033 6.15365 8.7049 6.15845 8.71 6.16364C8.80698 6.26233 9.0142 6.41339 9.37697 6.56953C10.0978 6.87982 11.1884 7.10504 12.4641 7.10504C13.7399 7.10504 14.8304 6.87982 15.5513 6.56953C15.914 6.41339 16.1212 6.26233 16.2182 6.16364ZM16.232 2.86259C16.2618 2.7888 16.2773 2.71319 16.2773 2.6362C16.2773 2.56917 16.2656 2.50319 16.2428 2.43854C15.9903 1.72044 14.3813 1.16673 12.4341 1.16673C10.3974 1.16673 8.73075 1.77247 8.59922 2.53848C8.59367 2.57078 8.59086 2.60336 8.59086 2.6362C8.59086 3.01574 8.96718 3.36167 9.58494 3.62242C10.2881 3.91923 11.3042 4.10567 12.4341 4.10567C13.6276 4.10567 14.6941 3.89764 15.399 3.57123C15.7905 3.38994 16.0705 3.17213 16.1988 2.93317C16.2152 2.91435 16.2256 2.89991 16.232 2.89041V2.86259Z" fill="#222F3E"/>
</svg>
